<?xml version="1.0" encoding="UTF-8"?>
<svg id="Layer_1" xmlns="http://www.w3.org/2000/svg" version="1.1" viewBox="0 0 48 48">
  <!-- Generator: Adobe Illustrator 29.5.0, SVG Export Plug-In . SVG Version: 2.1.0 Build 137)  -->
  <defs>
    <style>
      .st0 {
        fill: #71bf44;
      }

      .st1 {
        fill: #44beec;
      }

      .st2 {
        fill: #0095d5;
      }
    </style>
  </defs>
  <path class="st1" d="M36.26,32.65H13.8s-4.42,2.78-4.42,4.42.71,5.44,4.3,5.44,22.58.21,22.58.21v-10.07Z"/>
  <path class="st2" d="M14.5,44c-1.8,0-3.33-.63-4.6-1.9s-1.9-2.8-1.9-4.6V10.5c0-1.8.63-3.33,1.9-4.6s2.8-1.9,4.6-1.9h25.5v30c-.87,0-1.58.35-2.15,1.05s-.85,1.52-.85,2.45.28,1.75.85,2.45,1.28,1.05,2.15,1.05v3H14.5ZM14.48,41h20.47c-.3-.5-.53-1.05-.7-1.65s-.25-1.22-.25-1.85c0-.67.08-1.29.25-1.88.17-.58.42-1.13.75-1.63H14.48c-.95,0-1.77.34-2.46,1.02-.68.68-1.02,1.51-1.02,2.48s.34,1.79,1.03,2.48,1.5,1.03,2.45,1.03ZM11,32c.5-.33,1.04-.58,1.62-.75s1.21-.25,1.88-.25h22.5V7H14.5c-.97,0-1.79.34-2.48,1.02-.68.68-1.03,1.51-1.03,2.48v21.5h0ZM11,32V7v25Z"/>
  <path class="st0" d="M24.37,28.03c.49,0,.92-.19,1.29-.57.38-.38.57-.82.57-1.32s-.19-.93-.57-1.29c-.38-.36-.82-.54-1.31-.54s-.93.18-1.29.54-.55.8-.55,1.32c0,.49.18.92.55,1.3.37.38.8.57,1.31.57Z"/>
  <path class="st0" d="M22.63,22.12h2.99c0-.65.09-1.26.26-1.84s.68-1.22,1.52-1.92c.78-.59,1.34-1.24,1.68-1.95.34-.71.51-1.49.51-2.34,0-1.51-.44-2.71-1.33-3.62-.88-.9-2.1-1.36-3.65-1.36-1.4,0-2.66.38-3.76,1.15s-1.92,1.79-2.43,3.06l2.79,1.05c.32-.78.76-1.38,1.31-1.78.55-.4,1.15-.61,1.8-.61s1.22.2,1.69.59.7.92.7,1.58c0,.49-.16.99-.47,1.49s-.74.96-1.27,1.4c-.76.65-1.34,1.36-1.74,2.13-.4.77-.61,1.76-.61,2.97Z"/>
</svg>